<svg xmlns="http://www.w3.org/2000/svg" xmlns:xlink="http://www.w3.org/1999/xlink" width="800" height="800" viewBox="-68 -68 800 800">
  <defs>
    <style>
      .cls-1 {
        fill: blue;
      }

      .cls-1, .cls-2, .cls-3, .cls-4 {
        fill-rule: evenodd;
      }

      .cls-3 {
        fill: #fff;
      }

      .cls-4 {
        fill: #d5bc17;
      }
    </style>
    <clipPath id="clip-path">
      <rect width="664" height="664"/>
    </clipPath>
  </defs>
  <g clip-path="url(#clip-path)">
    <path id="Cape_1" data-name="Cape 1" class="cls-1" d="M194.478,173.941c13.919-.011,133.113,48.472,122.9,145.382-2.762,99.43-60.02,133.44-90.506,102.806S159.645,371.11,95.4,401.36c-19.972-50.8,1.55-111.708,21.912-149.536-18.619,6.76-36.509,13.67-52.4,23.884L43,290.247V254.94c9.881-22.182,57.537-55.833,79.073-67.5l26.676-10.385C159.736,173.972,186.142,171.623,194.478,173.941Z"/>
    <path id="Silouhette_1" data-name="Silouhette 1" class="cls-2" d="M112.774,104.235c37.829-.291,67.891,4.253,97.284,13.084,10.814,3.249,32.172,16.334,44.671,11.071,21-8.841,31.491-44.551,44.671-62.4C327.744,27.6,435.02-28.254,494.959,16.67c13.8,10.344,19.528,27.016,24.818,46.3,5.911,21.549,13.6,53.273,7.941,81.526-7.14,35.665-29.186,81.847-19.854,133.863,10.33,57.57,51.851,79.811,80.408,117.76q-0.992,2.012-1.985,4.025c-21.521,8.761-52.476-1.674-69.488-11.071l-1.986,1.007c9.181,41.988,23.338,82.887,37.722,120.778q5.46,19.122,10.92,38.247c16.72,34.773,68.115,44.416,55.591,103.668-22.591,15.721-117.115,15.971-132.028-6.039-11.891-17.549-8.511-67.6-1.985-89.577-29.056-39.7-198.393-120.663-239.239-48.312,2.76,6.225,5.989,8.1,6.949,16.1l-2.978,2.013c-18.863,9.852-138.433,23.216-159.823,10.065v-5.032c16.745-32.759,65.38-47.084,79.415-77.5-7.625-28.34-17.34-89.612-9.927-123.8,2.971-13.7,21.175-47.715,18.861-61.4-8.306-49.117-34.071-89.73-49.634-129.837C123.871,127.128,112.9,121.433,112.774,104.235Z"/>
    <path id="Ventre_1" data-name="Ventre 1" class="cls-3" d="M460.2,298.763c52.152,36.643,4.112,186.373-19.125,225.237-41.465-21.734-77.22-45-148.077-44,0.708-21.924,1.807-49.685,2.515-71.609,8.834-49.815,21.9-94.168,62.687-113.615C366.58,291.619,415.241,267.172,460.2,298.763Z"/>
    <path id="Masque_1" data-name="Masque 1" class="cls-1" d="M283.433,87.066c25.455-.343,33.675,20.888,49.222,30.6,27.348,17.08,62.937,27.844,100.3,35.559,14.306,2.954,80.817,1.152,84.513,3.308,23.709,13.829,8.056,72.527-16.717,74.427-20.133-12.317-35.343-28.676-59.438-36.387-74.636,32.49-104.11,35.678-147.666-26.462C281.249,150.419,257.2,106.511,283.433,87.066Z"/>
    <path id="Yeux" class="cls-3" d="M338.227,156.531c-7.617,25.022,35.458,38.492,56.652,28.944v-2.481ZM484.036,189.61l-15.788,2.48q-0.928,1.655-1.858,3.308l3.715,2.481c7.765,3.162,14.983-2.241,17.646-6.616Z"/>
    <path id="Bec_1" data-name="Bec 1" class="cls-4" d="M447.317,218c32.257-.2,57.7,28.615,81.683,41.884l-0.972,2.264-56.4,22.64c-13.326,3.275-70.3-38.272-83.628-45.28"/>
  </g>
</svg>
